<svg width="312" height="48" viewBox="0 0 312 48" fill="none" xmlns="http://www.w3.org/2000/svg">
<g clip-path="url(#clip0_1422_2217)">
<path d="M42.1679 16.7733C41.4428 15.1387 40.6137 13.5536 39.686 12.0277C38.5476 10.0806 37.9925 8.79335 37.9925 8.10901C37.9925 7.29431 38.439 7.15581 38.7126 7.15581C39.3119 7.15581 39.9193 7.90532 40.6233 9.51027C40.7668 9.91884 40.9629 10.3065 41.2065 10.6631C41.4006 10.7515 41.6146 10.7853 41.826 10.7608C42.004 10.7737 42.1829 10.7599 42.357 10.7201C42.3771 10.7201 42.3932 10.6671 42.3932 10.5857C42.3932 10.5042 42.3932 10.439 42.353 10.2516L41.7536 6.45517C41.7424 6.33918 41.7111 6.22611 41.6611 6.12115C41.2588 6.06005 41.1542 6.0519 41.1341 6.0519C41.0541 6.0476 40.9743 6.06541 40.9035 6.10344C40.8326 6.14147 40.7733 6.19827 40.7319 6.26779C40.6108 6.4566 40.4763 6.6363 40.3296 6.80549L40.2331 6.88289L40.1285 6.82179C39.5386 6.38801 38.8434 6.12471 38.1172 6.06004C37.7225 6.0657 37.3353 6.17067 36.9905 6.3655C36.6457 6.56033 36.3542 6.83892 36.1422 7.17618C35.5454 8.08862 35.2535 9.17091 35.3095 10.2639C35.315 11.4337 35.5573 12.5899 36.0215 13.6611C36.7381 15.224 37.5607 16.7348 38.4833 18.1827C38.97 18.9689 39.3803 19.698 39.7222 20.3498C40.0297 20.8838 40.2076 21.4841 40.2411 22.1014C40.2512 22.3863 40.1566 22.665 39.9756 22.8835C39.8877 22.9893 39.7772 23.0736 39.6525 23.13C39.5278 23.1864 39.3921 23.2136 39.2556 23.2093C38.5155 23.2093 37.8236 22.2847 37.1478 20.3783C37.0486 20.0518 36.9137 19.7375 36.7456 19.4414C36.7456 19.4414 36.6329 19.2988 35.9411 19.2988C35.752 19.2988 35.5388 19.3273 35.5388 19.4618C35.5388 19.4618 35.5388 19.584 35.6514 20.195L36.2025 23.9222C36.2347 24.2114 36.283 24.2644 36.291 24.2644C36.2991 24.2644 36.3353 24.3051 36.5364 24.3051C37.1076 24.3051 37.2122 24.0648 37.2403 23.9833C37.353 23.7267 37.5139 23.6656 37.6426 23.6656C37.8399 23.6845 38.0287 23.7562 38.1896 23.8733C38.6218 24.1542 39.1243 24.304 39.6378 24.3051C40.0523 24.2913 40.4589 24.1862 40.8292 23.9969C41.1995 23.8076 41.5246 23.5389 41.7818 23.2093C42.4213 22.4802 42.7472 21.4007 42.7472 20.0076C42.7596 18.9019 42.563 17.8041 42.1679 16.7733Z" fill="black"/>
<path d="M52.9348 22.7695C52.9348 22.7695 52.8945 22.7247 52.7819 22.631C52.3814 22.2383 52.1319 21.7142 52.078 21.1523L50.127 7.89318C50.079 7.36044 49.9793 6.83378 49.8294 6.32083C49.8 6.23804 49.7449 6.1671 49.6724 6.11863C49.5999 6.07017 49.5138 6.04679 49.4271 6.05198H45.2155C45.0707 6.05198 45.0184 6.08864 45.0104 6.10086C44.9568 6.32742 44.9391 6.56118 44.9581 6.79335C44.9581 6.95629 44.9863 7.17218 45.1029 7.2455C45.2553 7.30672 45.3879 7.4096 45.4859 7.54266C45.5839 7.67572 45.6435 7.83374 45.658 7.9991C45.6569 8.18786 45.638 8.37608 45.6017 8.56124L43.5542 21.7389C43.4975 22.065 43.3295 22.3605 43.0796 22.574C42.9671 22.6884 42.8796 22.8255 42.8228 22.9764C42.766 23.1272 42.7411 23.2885 42.7497 23.4498C42.7497 23.7145 42.802 23.796 42.8221 23.796H45.7344C45.7674 23.8046 45.802 23.8046 45.835 23.796C45.8514 23.6418 45.8581 23.4867 45.8551 23.3316C45.8668 23.1789 45.849 23.0253 45.8028 22.8795C45.8028 22.8469 45.7304 22.7654 45.5373 22.6677C45.3689 22.5991 45.2227 22.4841 45.1154 22.3358C45.0081 22.1876 44.9438 22.0118 44.9299 21.8285C44.9351 21.6171 44.9689 21.4074 45.0305 21.2053C45.0344 21.1841 45.0412 21.1635 45.0506 21.1442L45.1954 19.9506H48.2365L48.2646 20.0932C48.3828 20.7054 48.4634 21.3244 48.506 21.9466C48.5038 22.1046 48.4598 22.2591 48.3784 22.3938C48.297 22.5285 48.1813 22.6386 48.0434 22.7125C47.8463 22.8469 47.798 22.9283 47.794 22.9487C47.7429 23.1466 47.7265 23.3521 47.7457 23.5557C47.7457 23.7716 47.794 23.8123 47.794 23.8123H52.7175C52.8342 23.8123 52.8905 23.7919 52.9026 23.7634C52.9592 23.5651 52.977 23.3576 52.9549 23.1524C52.961 23.0244 52.9543 22.8961 52.9348 22.7695ZM45.3362 18.9852L46.7803 8.86267L48.1801 18.9852H45.3362Z" fill="black"/>
<path d="M63.9531 22.5936C63.8452 22.5259 63.7573 22.43 63.6986 22.3161C63.6398 22.2021 63.6124 22.0743 63.6192 21.9459V19.2778C63.6192 17.1922 62.6619 15.9579 60.6828 15.5139L60.0593 15.3795L60.6788 15.1881C62.8549 14.5282 63.8968 13.1513 63.8968 11.0046C63.9284 10.3386 63.8224 9.67315 63.5855 9.05098C63.3486 8.4288 62.9861 7.86357 62.5211 7.39144C61.6904 6.54117 60.5606 6.05921 59.3795 6.05127H53.2652C53.0641 6.05127 52.9676 6.28753 52.9676 6.75191C52.957 6.88878 52.9692 7.02649 53.0038 7.15925C53.0788 7.21416 53.1634 7.25423 53.2532 7.27737C53.5428 7.36292 53.8968 7.61141 53.8968 8.32019V21.4531C53.9121 21.6924 53.8512 21.9303 53.7231 22.132C53.5949 22.3336 53.4062 22.4883 53.1848 22.5733C53.0802 22.6058 53.0722 22.6507 53.0641 22.6792C53.0353 22.9074 53.0246 23.1376 53.0319 23.3676C53.0319 23.7749 53.1928 23.7749 53.2652 23.7749H57.9354C58.04 23.7878 58.1455 23.7585 58.229 23.6935C58.229 23.6935 58.3095 23.559 58.3095 22.9928C58.3205 22.8977 58.3066 22.8013 58.2691 22.7134C58.2317 22.6254 58.1721 22.549 58.0963 22.4918C57.9433 22.4147 57.8212 22.2867 57.7504 22.1292C57.7 21.9409 57.6796 21.7456 57.69 21.5508V15.8439H58.3537C59.3272 15.8439 59.838 16.3531 59.838 17.3307V21.8482C59.8218 22.3423 59.9327 22.8322 60.1598 23.2698C60.2208 23.4182 60.3218 23.5462 60.4513 23.6391C60.5808 23.7321 60.7335 23.7862 60.892 23.7953H63.8525C64.0778 23.7953 64.1261 23.7464 64.1261 23.7464C64.1713 23.5228 64.1862 23.2939 64.1703 23.0661C64.177 22.9751 64.1606 22.8839 64.1225 22.8012C64.0845 22.7185 64.0262 22.647 63.9531 22.5936ZM59.838 12.4792C59.838 14.0719 59.4117 14.8785 58.575 14.8785H57.69V6.99632H58.2371C58.4571 6.97966 58.6782 7.00982 58.886 7.08489C59.0939 7.15996 59.2839 7.27825 59.4438 7.43217C59.748 7.84664 59.8911 8.35983 59.8461 8.87418L59.838 12.4792Z" fill="black"/>
<path d="M74.3186 6.07163C74.2945 6.06897 74.2702 6.06897 74.2462 6.07163H71.5108C71.4712 6.0621 71.4298 6.0621 71.3902 6.07163C71.3542 6.25803 71.3407 6.44816 71.3499 6.63785V6.82115C71.3499 6.88632 71.3499 6.92706 71.3499 6.97594C71.3499 7.02482 71.37 7.04927 71.6074 7.17147C71.7915 7.23092 71.9533 7.34584 72.0711 7.50088C72.189 7.65592 72.2574 7.8437 72.2671 8.03912C72.2681 8.12955 72.2586 8.21977 72.2389 8.30796L70.3644 17.8358L68.6951 8.29574C68.67 8.19454 68.6578 8.0905 68.6589 7.98617C68.6551 7.7951 68.7084 7.60733 68.8117 7.44743C68.9151 7.28754 69.0637 7.16296 69.2381 7.09C69.2978 7.06741 69.3477 7.02412 69.3789 6.9678V6.84559C69.3789 6.53193 69.3789 6.36085 69.3789 6.34862C69.3789 6.3364 69.3789 6.05127 69.2944 6.05127H64.2783C64.2301 6.05127 64.1778 6.05127 64.1778 6.25494V6.40974C64.1828 6.45712 64.1828 6.50491 64.1778 6.5523C64.1778 6.62969 64.1778 6.71117 64.1778 6.80079C64.1778 6.8904 64.1778 6.89448 64.1778 6.94336C64.174 7.01593 64.1808 7.08868 64.1979 7.15925C64.1979 7.15925 64.2381 7.19591 64.4151 7.30589C64.5795 7.40648 64.72 7.54263 64.8264 7.7046C64.9328 7.86657 65.0025 8.05035 65.0305 8.2428L67.9107 23.1272C67.9499 23.4047 68.0159 23.6776 68.1078 23.9419C68.144 23.9867 68.1641 23.9867 68.1882 23.9867H70.4972L70.6581 23.1232L73.5382 8.56053C73.5791 8.25888 73.6603 7.96425 73.7795 7.68472C73.9012 7.50259 74.0622 7.35078 74.2502 7.24072C74.2886 7.22347 74.3199 7.19323 74.3387 7.15518C74.3499 6.94759 74.3499 6.73953 74.3387 6.53194C74.3482 6.37821 74.3415 6.2239 74.3186 6.07163Z" fill="black"/>
<path d="M84.5329 22.7714C84.5329 22.7714 84.4927 22.7265 84.3881 22.6328C83.9853 22.241 83.7329 21.7169 83.6761 21.1542L81.7252 7.89504C81.6836 7.36141 81.5837 6.83409 81.4275 6.32269C81.4025 6.23706 81.3485 6.16311 81.2749 6.11392C81.2013 6.06473 81.1129 6.04346 81.0253 6.05384H76.8137C76.6689 6.05384 76.6206 6.0905 76.6086 6.10272C76.5646 6.33068 76.5497 6.56342 76.5643 6.79522C76.5643 6.95815 76.5643 7.17404 76.7011 7.24736C76.8539 7.30838 76.9871 7.41111 77.0858 7.54414C77.1845 7.67716 77.2449 7.83529 77.2602 8.00096C77.2575 8.18984 77.2373 8.37804 77.1999 8.5631L75.1524 21.7408C75.0955 22.0649 74.9309 22.3596 74.6858 22.5758C74.5721 22.6897 74.4832 22.8265 74.425 22.9774C74.3668 23.1283 74.3405 23.2898 74.3479 23.4516C74.3479 23.7164 74.4002 23.7979 74.4283 23.7979H77.3447C77.4251 23.7979 77.4452 23.7979 77.4452 23.7979C77.4549 23.6432 77.4549 23.4881 77.4452 23.3335C77.4569 23.1808 77.4392 23.0272 77.3929 22.8813C77.3929 22.8487 77.3246 22.7673 77.1315 22.6695C76.963 22.6015 76.8169 22.4867 76.7101 22.3382C76.6034 22.1897 76.5403 22.0136 76.5281 21.8304C76.5323 21.6195 76.5634 21.41 76.6206 21.2071C76.6234 21.1869 76.6234 21.1663 76.6206 21.146L76.7654 19.9525H79.8145L79.8346 20.0951C79.9555 20.7069 80.0374 21.326 80.08 21.9485C80.077 22.1068 80.0322 22.2613 79.9501 22.396C79.868 22.5308 79.7517 22.6407 79.6134 22.7143C79.4163 22.8487 79.368 22.9302 79.364 22.9506C79.3249 23.1503 79.3114 23.3543 79.3238 23.5575C79.3238 23.7734 79.368 23.8142 79.368 23.8142H84.2876C84.4042 23.8142 84.4645 23.7938 84.4806 23.7653C84.5312 23.5659 84.5488 23.3595 84.5329 23.1543C84.5508 23.0273 84.5508 22.8984 84.5329 22.7714ZM76.9424 18.9871L78.3865 8.86453L79.7582 18.9871H76.9424Z" fill="black"/>
<path d="M91.4117 16.7732C90.6882 15.1378 89.8591 13.5525 88.9298 12.0276C87.7914 10.0804 87.2403 8.79323 87.2403 8.10889C87.2403 7.2942 87.6868 7.15569 87.9563 7.15569C88.5557 7.15569 89.1631 7.90521 89.867 9.51015C90.0077 9.92071 90.2055 10.3089 90.4543 10.663C90.6495 10.7523 90.8651 10.7861 91.0778 10.7607C91.2545 10.7729 91.432 10.7592 91.6048 10.72C91.6249 10.72 91.637 10.667 91.637 10.5856C91.6294 10.4736 91.6159 10.3621 91.5967 10.2515L90.9974 6.45505C90.9906 6.33827 90.959 6.22436 90.9049 6.12104C90.5026 6.05993 90.398 6.05178 90.3779 6.05178C90.2979 6.04792 90.2183 6.06593 90.1476 6.10392C90.0768 6.1419 90.0174 6.19846 89.9756 6.26767C89.8562 6.45766 89.7217 6.63749 89.5734 6.80538L89.4809 6.88277L89.3723 6.82167C88.7824 6.38789 88.0872 6.12459 87.361 6.05992C86.9663 6.06594 86.5792 6.17107 86.2345 6.36587C85.8898 6.56067 85.5983 6.83905 85.3859 7.17606C84.7907 8.08922 84.499 9.17098 84.5533 10.2637C84.5587 11.4336 84.801 12.5898 85.2653 13.661C85.9835 15.2231 86.806 16.7337 87.7271 18.1826C88.2138 18.9687 88.6281 19.6979 88.966 20.3497C89.2755 20.8833 89.456 21.4835 89.4929 22.1012C89.502 22.3875 89.4043 22.6667 89.2194 22.8834C89.1331 22.989 89.0241 23.0733 88.9007 23.1298C88.7773 23.1862 88.6428 23.2134 88.5074 23.2092C87.7633 23.2092 87.0714 22.2846 86.3916 20.3782C86.2924 20.0517 86.1575 19.7374 85.9893 19.4413C85.9893 19.4413 85.8767 19.2987 85.1848 19.2987C84.9998 19.2987 84.7826 19.3272 84.7826 19.4616C84.7826 19.4616 84.7826 19.5838 84.8952 20.1949L85.4463 23.9221C85.4825 24.2113 85.5267 24.2643 85.5348 24.2643C85.5428 24.2643 85.579 24.305 85.7801 24.305C86.3513 24.305 86.46 24.0647 86.4921 23.9832C86.6007 23.7266 86.7576 23.6655 86.8703 23.6655C87.0677 23.6838 87.2566 23.7556 87.4173 23.8732C87.8511 24.1538 88.3547 24.3036 88.8695 24.305C89.2834 24.2912 89.6894 24.186 90.0591 23.9967C90.4287 23.8074 90.753 23.5387 91.0094 23.2092C91.649 22.4801 91.9748 21.4006 91.9748 20.0075C91.9925 18.9029 91.8013 17.805 91.4117 16.7732Z" fill="black"/>
<path d="M102.12 6.07163C102.096 6.06856 102.072 6.06856 102.048 6.07163H99.3124C99.2755 6.06197 99.2367 6.06197 99.1998 6.07163C99.1611 6.25764 99.1475 6.44814 99.1596 6.63785V6.82115C99.156 6.87268 99.156 6.92441 99.1596 6.97594C99.1596 6.97594 99.1797 7.04927 99.421 7.17147C99.6044 7.23161 99.7653 7.34683 99.8824 7.50181C99.9995 7.65679 100.067 7.8442 100.077 8.03912C100.075 8.12921 100.067 8.21905 100.053 8.30796L98.174 17.8358L96.5047 8.29574C96.4783 8.19471 96.4648 8.09068 96.4645 7.98617C96.4619 7.79428 96.5166 7.60609 96.6214 7.44619C96.7262 7.2863 96.8762 7.16215 97.0518 7.09C97.1282 7.04926 97.1845 7.00039 97.1885 6.9678V6.84559C97.1885 6.53193 97.2086 6.36085 97.2086 6.34862C97.2086 6.3364 97.2086 6.05127 97.1161 6.05127H92.084C92.0397 6.05127 91.9834 6.05127 91.9834 6.25494V6.40974C91.9884 6.45712 91.9884 6.50491 91.9834 6.5523C91.9891 6.63502 91.9891 6.71806 91.9834 6.80079C91.9795 6.84823 91.9795 6.89592 91.9834 6.94336C91.973 7.01494 91.973 7.08767 91.9834 7.15925C92.0535 7.21352 92.1275 7.26253 92.2046 7.30589C92.3674 7.40797 92.5064 7.54461 92.6119 7.70636C92.7175 7.86812 92.7871 8.05114 92.816 8.2428L95.6962 23.1272C95.7347 23.4052 95.8021 23.6783 95.8973 23.9419C95.9041 23.9572 95.9156 23.9699 95.9301 23.9779C95.9447 23.986 95.9614 23.9891 95.9778 23.9867H98.2867L98.4436 23.1232L101.328 8.56053C101.364 8.25839 101.444 7.96329 101.565 7.68472C101.686 7.50076 101.849 7.34858 102.04 7.24072C102.112 7.19998 102.116 7.1674 102.116 7.15518C102.13 6.94767 102.13 6.73944 102.116 6.53194C102.13 6.37886 102.131 6.22492 102.12 6.07163Z" fill="black"/>
<path d="M112.333 22.7695C112.333 22.7695 112.293 22.7247 112.176 22.631C111.776 22.2383 111.526 21.7142 111.472 21.1523L109.522 7.89318C109.478 7.35984 109.378 6.83274 109.224 6.32083C109.194 6.23804 109.139 6.1671 109.067 6.11863C108.994 6.07017 108.908 6.04679 108.822 6.05198H104.598C104.449 6.05198 104.397 6.08864 104.389 6.10086C104.342 6.32844 104.327 6.56156 104.345 6.79335C104.345 6.95629 104.365 7.17218 104.485 7.2455C104.638 7.30672 104.77 7.4096 104.868 7.54266C104.966 7.67572 105.026 7.83374 105.04 7.9991C105.039 8.18786 105.02 8.37608 104.984 8.56124L102.933 21.7389C102.876 22.064 102.71 22.3592 102.462 22.574C102.35 22.6887 102.262 22.8257 102.204 22.9764C102.147 23.1272 102.121 23.2883 102.128 23.4498C102.128 23.7145 102.18 23.796 102.201 23.796H105.117C105.15 23.8038 105.184 23.8038 105.217 23.796C105.225 23.6413 105.225 23.4863 105.217 23.3316C105.229 23.1789 105.211 23.0253 105.165 22.8795C105.165 22.8469 105.093 22.7654 104.9 22.6677C104.731 22.5993 104.586 22.4843 104.479 22.3359C104.372 22.1875 104.309 22.0116 104.296 21.8285C104.3 21.6172 104.332 21.4075 104.393 21.2053L104.413 21.1442L104.562 19.9506H107.603L107.627 20.0932C107.749 20.7047 107.83 21.3239 107.868 21.9466C107.866 22.1041 107.822 22.2581 107.742 22.3927C107.661 22.5274 107.547 22.6377 107.41 22.7125C107.209 22.8469 107.16 22.9283 107.156 22.9487C107.108 23.1471 107.092 23.352 107.108 23.5557C107.108 23.7716 107.156 23.8123 107.16 23.8123H112.124C112.245 23.8123 112.297 23.7919 112.309 23.7634C112.366 23.5651 112.384 23.3576 112.361 23.1524C112.362 23.0242 112.353 22.8961 112.333 22.7695ZM104.731 18.9852L106.175 8.86267L107.575 18.9852H104.731Z" fill="black"/>
<path d="M121.831 20.0687C121.377 20.0687 121.204 20.1624 121.139 20.2438C121.001 20.4636 120.934 20.7211 120.946 20.9811C120.866 22.4802 120.459 23.2338 119.739 23.2338C119.337 23.2338 118.842 22.9894 118.842 21.8121V9.21289C118.842 8.73222 118.842 7.28615 119.707 7.28615C120.367 7.28615 120.838 8.12528 121.163 9.86465C121.208 10.2656 121.321 10.6557 121.497 11.0174C121.567 11.088 121.652 11.1415 121.745 11.174C121.839 11.2064 121.938 11.217 122.036 11.2048C122.33 11.2048 122.438 11.1396 122.438 11.103C122.517 10.9725 122.55 10.8188 122.531 10.6671C122.531 10.606 122.531 10.5368 122.531 10.4716L122.27 6.85843C122.278 6.61169 122.24 6.36563 122.157 6.13335C122.14 6.10613 122.116 6.08413 122.088 6.06976C122.059 6.0554 122.028 6.0492 121.996 6.05188H121.417C121.397 6.05188 121.312 6.07225 121.163 6.26778C120.805 6.72401 120.644 6.75659 120.226 6.4633C119.855 6.18623 119.404 6.04283 118.943 6.05595C118.531 6.0596 118.123 6.1494 117.747 6.31972C117.37 6.49004 117.033 6.73722 116.755 7.0458C116.025 7.88143 115.484 8.86851 115.17 9.93797C114.698 11.5761 114.485 13.2795 114.538 14.985C114.486 16.8463 114.74 18.7034 115.29 20.4801C115.781 21.8895 116.368 22.8957 117.032 23.4619C117.678 24.0126 118.497 24.3104 119.341 24.301C119.765 24.3094 120.185 24.224 120.573 24.051C120.96 23.8779 121.306 23.6213 121.586 23.2989C122.199 22.5997 122.524 21.688 122.491 20.753C122.491 20.3823 122.41 20.2479 122.362 20.199C122.207 20.0908 122.018 20.0444 121.831 20.0687Z" fill="black"/>
<path d="M133.133 22.7695C133.133 22.7695 133.093 22.7247 132.98 22.631C132.58 22.2383 132.33 21.7142 132.276 21.1523L130.325 7.89318C130.277 7.36044 130.178 6.83378 130.028 6.32083C129.998 6.23804 129.943 6.1671 129.871 6.11863C129.798 6.07017 129.712 6.04679 129.625 6.05198H125.43C125.285 6.05198 125.233 6.08864 125.225 6.10086C125.174 6.32794 125.158 6.56138 125.176 6.79335C125.176 6.95629 125.197 7.17218 125.317 7.2455C125.47 7.30652 125.603 7.40924 125.702 7.54227C125.801 7.6753 125.861 7.83343 125.876 7.9991C125.874 8.18797 125.853 8.37618 125.816 8.56124L123.769 21.7389C123.712 22.065 123.544 22.3605 123.294 22.574C123.183 22.6894 123.096 22.8267 123.039 22.9773C122.983 23.1279 122.957 23.2887 122.964 23.4498C122.964 23.7145 123.016 23.796 123.036 23.796H125.949C125.982 23.8046 126.016 23.8046 126.049 23.796C126.066 23.6418 126.072 23.4867 126.069 23.3316C126.081 23.1789 126.063 23.0253 126.017 22.8795C126.017 22.8469 125.945 22.7654 125.752 22.6677C125.583 22.5999 125.436 22.4851 125.329 22.3367C125.221 22.1883 125.157 22.0121 125.144 21.8285C125.147 21.6169 125.181 21.4069 125.245 21.2053C125.249 21.1841 125.255 21.1635 125.265 21.1442L125.41 19.9506H128.451L128.479 20.0932C128.599 20.705 128.678 21.3242 128.716 21.9466C128.714 22.1041 128.67 22.2581 128.59 22.3927C128.509 22.5274 128.395 22.6377 128.258 22.7125C128.061 22.8469 128.012 22.9283 128.008 22.9487C127.957 23.1466 127.941 23.3521 127.96 23.5557C127.96 23.7716 128.008 23.8123 128.008 23.8123H132.932C133.048 23.8123 133.105 23.7919 133.117 23.7634C133.174 23.5651 133.191 23.3576 133.169 23.1524C133.17 23.0238 133.158 22.8955 133.133 22.7695ZM125.534 18.9852L126.978 8.86267L128.374 18.9852H125.534Z" fill="black"/>
<path d="M143.339 7.58751C142.852 7.07555 142.263 6.67425 141.611 6.41021C140.959 6.14616 140.26 6.02539 139.558 6.05589H133.899C133.705 6.05589 133.657 6.09663 133.657 6.09663C133.614 6.20653 133.598 6.3252 133.609 6.44286V6.9602C133.609 7.03811 133.631 7.11444 133.672 7.18015C133.713 7.24585 133.772 7.29816 133.842 7.33089C134.032 7.40018 134.197 7.52509 134.317 7.68974C134.437 7.85439 134.505 8.05134 134.514 8.25556V21.7835C134.525 21.9436 134.49 22.1034 134.413 22.2438C134.297 22.378 134.14 22.4696 133.967 22.5046C133.73 22.5779 133.693 22.639 133.693 22.639C133.65 22.845 133.635 23.0561 133.649 23.2663C133.649 23.7999 133.826 23.7999 133.882 23.7999H138.907C139.192 23.7999 139.273 23.751 139.285 23.7388C139.297 23.7266 139.353 23.6696 139.353 23.307C139.37 23.1185 139.342 22.9287 139.273 22.753C139.203 22.6534 139.102 22.5803 138.987 22.5453C138.782 22.4769 138.605 22.3412 138.485 22.1597C138.365 21.9782 138.308 21.7612 138.323 21.5432V17.6245H139.872C140.502 17.6269 141.126 17.5052 141.71 17.2661C142.261 17.0388 142.774 16.7269 143.231 16.3414C143.733 15.8646 144.105 15.2639 144.309 14.598C144.617 13.7126 144.767 12.7788 144.751 11.8402C144.751 10.0479 144.297 8.60995 143.339 7.58751ZM140.459 14.6061C140.503 15.1536 140.383 15.7017 140.113 16.1785C140.025 16.3275 139.901 16.4522 139.754 16.5416C139.607 16.6311 139.44 16.6827 139.269 16.6917H138.323V6.96834H139.067C139.703 6.96834 140.471 7.31866 140.471 9.00508L140.459 14.6061Z" fill="black"/>
<path d="M151.003 6.08076C150.914 6.05763 150.822 6.04801 150.73 6.05224H145.432C145.259 6.05224 145.235 6.11333 145.235 6.23554V6.82619C145.227 6.91845 145.238 7.01147 145.267 7.09912C145.267 7.09912 145.307 7.16021 145.533 7.2539C145.777 7.33447 145.98 7.5084 146.1 7.73865C146.196 7.9873 146.239 8.25402 146.225 8.52076V21.8125C146.225 22.0895 146.104 22.4479 145.504 22.6272C145.36 22.6761 145.251 22.7372 145.235 22.7983C145.187 23.108 145.171 23.422 145.187 23.7352C145.187 23.7718 145.187 23.8085 145.332 23.8085H150.73C150.805 23.8166 150.88 23.8166 150.955 23.8085C150.962 23.7217 150.962 23.6345 150.955 23.5478V23.0793C150.964 22.964 150.952 22.8479 150.919 22.7372C150.828 22.6444 150.718 22.5734 150.597 22.5294C150.431 22.4669 150.288 22.3563 150.184 22.2113C150.08 22.0664 150.021 21.8936 150.014 21.7147V8.25191C149.986 8.00512 150.055 7.75719 150.205 7.56091C150.355 7.36462 150.575 7.23548 150.818 7.20096C150.943 7.18059 150.959 7.13985 150.963 7.12763C151.022 6.90883 151.041 6.68115 151.019 6.45551C151.037 6.33065 151.031 6.20361 151.003 6.08076Z" fill="black"/>
<path d="M160.936 8.94381L160.751 6.63823C160.756 6.44823 160.726 6.25892 160.662 6.08017C160.564 6.05876 160.464 6.04918 160.364 6.05165H152.247C151.792 6.05165 151.708 6.13312 151.7 6.14126C151.692 6.14941 151.607 6.26346 151.595 6.63007L151.463 9.24525C151.454 9.38089 151.454 9.51695 151.463 9.65259C151.463 9.897 151.519 9.97032 151.543 9.99068C151.567 10.0111 151.656 10.0722 152.05 10.0722C152.444 10.0722 152.557 9.99884 152.597 9.94996C152.637 9.90108 152.73 9.7748 152.794 9.24932C152.83 8.626 152.945 8.00994 153.136 7.41626C153.17 7.29576 153.241 7.18925 153.339 7.11177C153.436 7.0343 153.555 6.98977 153.679 6.98448H154.351V21.763C154.365 21.9505 154.323 22.138 154.23 22.3007C154.098 22.4557 153.925 22.5688 153.731 22.6266C153.566 22.6836 153.486 22.8954 153.486 23.2295C153.468 23.4118 153.486 23.5958 153.538 23.7712C153.538 23.7712 153.578 23.812 153.771 23.812H158.651C158.768 23.8254 158.887 23.8085 158.997 23.7631C159.036 23.584 159.051 23.4004 159.041 23.2172C159.054 23.047 159.036 22.8759 158.989 22.7121C158.938 22.6325 158.861 22.5735 158.771 22.5451C158.577 22.4632 158.413 22.3226 158.301 22.1425C158.188 21.9625 158.134 21.7517 158.144 21.539V6.96818H158.643C159.069 6.96818 159.254 7.52217 159.323 7.70547C159.493 8.23877 159.627 8.78315 159.725 9.33486C159.809 9.84812 159.902 9.92959 159.91 9.93366C160.112 10.0087 160.327 10.0366 160.541 10.0151C160.807 10.0151 160.899 9.96218 160.915 9.93366C160.972 9.79294 160.997 9.64127 160.988 9.48966C160.964 9.30228 160.948 9.11897 160.936 8.94381Z" fill="black"/>
<path d="M171.611 22.7714C171.611 22.7714 171.571 22.7265 171.466 22.6328C171.064 22.241 170.811 21.7169 170.754 21.1542L168.804 7.89504C168.762 7.36141 168.662 6.83409 168.506 6.32269C168.481 6.23706 168.427 6.16311 168.353 6.11392C168.28 6.06473 168.191 6.04346 168.104 6.05384H163.884C163.739 6.05384 163.691 6.0905 163.687 6.10272C163.627 6.32825 163.608 6.56283 163.631 6.79522C163.631 6.95815 163.659 7.17404 163.771 7.24736C163.924 7.30838 164.057 7.41111 164.156 7.54414C164.255 7.67716 164.315 7.83529 164.331 8.00096C164.328 8.18984 164.308 8.37804 164.27 8.5631L162.223 21.7408C162.166 22.0649 162.001 22.3596 161.756 22.5758C161.642 22.6897 161.554 22.8265 161.495 22.9774C161.437 23.1283 161.411 23.2898 161.418 23.4516C161.418 23.7164 161.47 23.7979 161.495 23.7979H164.403C164.483 23.7979 164.503 23.7979 164.503 23.7979C164.52 23.6437 164.527 23.4886 164.524 23.3335C164.535 23.1808 164.518 23.0272 164.471 22.8813C164.471 22.8487 164.403 22.7673 164.21 22.6695C164.041 22.6015 163.895 22.4867 163.789 22.3382C163.682 22.1897 163.619 22.0136 163.606 21.8304C163.61 21.6188 163.643 21.4088 163.707 21.2071C163.709 21.1868 163.709 21.1664 163.707 21.146L163.852 19.9525H166.901L166.921 20.0951C167.042 20.7069 167.124 21.326 167.166 21.9485C167.163 22.1066 167.117 22.2608 167.035 22.3954C166.953 22.5299 166.838 22.64 166.7 22.7143C166.503 22.8487 166.454 22.9302 166.45 22.9506C166.411 23.1503 166.398 23.3543 166.41 23.5575C166.41 23.7734 166.454 23.8142 166.454 23.8142H171.374C171.491 23.8142 171.551 23.7938 171.567 23.7653C171.621 23.5665 171.638 23.3595 171.619 23.1543C171.634 23.0269 171.632 22.898 171.611 22.7714ZM164.013 18.9871L165.457 8.86453L166.853 18.9871H164.013Z" fill="black"/>
<path d="M180.455 19.9367C180.275 19.8769 180.085 19.8561 179.896 19.8756C179.708 19.8577 179.519 19.8871 179.345 19.9611C179.309 19.9815 179.204 20.0833 179.096 20.5273C178.955 21.1689 178.746 21.7931 178.472 22.3889C178.384 22.5399 178.257 22.6639 178.105 22.7478C177.952 22.8317 177.781 22.8724 177.607 22.8655H176.803V8.24581C176.797 8.04088 176.86 7.84 176.981 7.67582C177.102 7.51164 177.275 7.39381 177.471 7.3415C177.696 7.26817 177.744 7.20707 177.748 7.19078C177.801 7.06211 177.82 6.92186 177.804 6.78343C177.804 6.24573 177.736 6.13574 177.728 6.1276C177.692 6.09828 177.651 6.07666 177.607 6.06405C177.562 6.05144 177.516 6.04812 177.471 6.05428H172.378C172.205 6.05428 172.165 6.09094 172.165 6.09502C172.117 6.26431 172.101 6.44109 172.117 6.61642C172.106 6.7944 172.129 6.97279 172.185 7.1419C172.185 7.18671 172.269 7.27631 172.515 7.37408C172.666 7.43218 172.795 7.53626 172.885 7.67195C172.975 7.80765 173.022 7.9683 173.018 8.13175V21.4398C173.018 22.1649 172.764 22.6129 172.269 22.7718C172.205 22.7875 172.15 22.8267 172.113 22.8818C172.062 23.0449 172.045 23.217 172.064 23.3869C172.064 23.7942 172.257 23.7942 172.362 23.7942H179.643C179.864 23.7942 179.924 23.7372 179.936 23.725C180.019 23.5807 180.067 23.4189 180.077 23.2525L180.479 20.5803C180.506 20.4212 180.524 20.2607 180.532 20.0996C180.516 19.9692 180.475 19.9407 180.455 19.9367Z" fill="black"/>
<path d="M191.301 9.45363L190.803 6.96881C190.803 6.88734 190.778 6.82216 190.77 6.77328C190.765 6.62869 190.722 6.48809 190.646 6.36593C190.544 6.31675 190.432 6.29567 190.32 6.30483H183.413C183.367 6.29767 183.32 6.3008 183.276 6.314C183.231 6.32719 183.19 6.35013 183.155 6.3812C183.12 6.41227 183.092 6.45072 183.074 6.49383C183.055 6.53694 183.046 6.58366 183.047 6.63071C183.047 6.91178 183.047 7.07472 183.047 7.09917C183.047 7.38431 183.148 7.46578 183.228 7.50651C183.445 7.58195 183.639 7.71238 183.791 7.88534C183.9 8.04521 183.954 8.23714 183.944 8.43119V21.9632C183.956 22.1386 183.908 22.3129 183.807 22.4561C183.649 22.6241 183.451 22.7488 183.232 22.8187C183.129 22.8578 183.033 22.9127 182.947 22.9816C182.917 23.1 182.907 23.2224 182.914 23.3442C182.89 23.5539 182.922 23.7665 183.007 23.9592C183.035 23.9878 183.12 24.0611 183.409 24.0611H188.466C188.743 24.0611 188.799 24.0122 188.799 24.0041C188.853 23.801 188.87 23.5901 188.852 23.3808C188.867 23.2361 188.849 23.0898 188.799 22.9531C188.799 22.9531 188.743 22.8879 188.486 22.8146C187.854 22.6231 187.725 22.2321 187.725 21.9307V14.965H188.449C188.573 14.955 188.697 14.9707 188.815 15.0112C188.932 15.0516 189.04 15.116 189.132 15.2004C189.224 15.2847 189.298 15.3872 189.349 15.5015C189.401 15.6159 189.429 15.7397 189.431 15.8653C189.43 16.1568 189.493 16.4449 189.616 16.7085C189.644 16.7411 189.757 16.8348 190.215 16.8348C190.369 16.8456 190.524 16.8332 190.674 16.7981C190.698 16.7332 190.708 16.6636 190.702 16.5944V12.521C190.711 12.4426 190.697 12.3633 190.662 12.2928C190.523 12.2549 190.379 12.2412 190.235 12.2521C189.737 12.2521 189.648 12.3336 189.648 12.3336C189.564 12.5493 189.509 12.7753 189.483 13.0057C189.456 13.2895 189.358 13.5615 189.198 13.7959C189.1 13.8939 188.983 13.9689 188.853 14.0154C188.724 14.0618 188.586 14.0787 188.449 14.0648H187.725V7.36802H187.874C188.12 7.34765 188.276 7.33542 188.377 7.33542C188.669 7.32018 188.956 7.41608 189.182 7.60427C189.405 7.88144 189.575 8.19947 189.68 8.54116C189.817 8.98997 189.995 9.42497 190.211 9.8406C190.26 9.918 190.424 10.0361 190.955 10.0361C191.322 10.0361 191.321 9.90985 191.321 9.8406C191.327 9.71126 191.32 9.5817 191.301 9.45363Z" fill="black"/>
<path d="M197.41 7.45358C197.531 7.43321 197.551 7.39248 197.555 7.38026C197.604 7.15992 197.62 6.93335 197.603 6.70813C197.61 6.58745 197.598 6.46644 197.567 6.34967C197.481 6.32526 197.391 6.31562 197.302 6.32116H192C191.827 6.32116 191.799 6.38225 191.799 6.50446V7.09511C191.789 7.18771 191.802 7.28123 191.835 7.36804C191.835 7.36804 191.871 7.42913 192.101 7.52282C192.221 7.5622 192.333 7.62529 192.43 7.70846C192.526 7.79163 192.606 7.89327 192.664 8.00757C192.764 8.25531 192.808 8.52252 192.792 8.78968V22.0814C192.792 22.3584 192.672 22.7169 192.072 22.8961C191.928 22.945 191.819 23.0061 191.799 23.0672C191.756 23.3775 191.742 23.6911 191.755 24.0041C191.755 24.0407 191.755 24.0774 191.899 24.0774H197.298C197.372 24.0855 197.448 24.0855 197.523 24.0774C197.53 23.9907 197.53 23.9034 197.523 23.8167V23.3482C197.537 23.2322 197.522 23.1145 197.479 23.0061C197.479 23.0061 197.43 22.9246 197.165 22.7983C196.998 22.7371 196.852 22.6271 196.747 22.482C196.642 22.337 196.581 22.1635 196.574 21.9836V8.52083C196.559 8.39507 196.569 8.26764 196.603 8.14585C196.638 8.02406 196.695 7.91032 196.773 7.81115C196.851 7.71199 196.947 7.62935 197.056 7.56799C197.166 7.50662 197.286 7.46774 197.41 7.45358Z" fill="black"/>
<path d="M207.361 6.32113H204.328C204.285 6.30938 204.239 6.30938 204.196 6.32113C204.179 6.41926 204.172 6.51892 204.175 6.61849C204.152 6.84817 204.178 7.08032 204.252 7.29876C204.334 7.41949 204.452 7.50966 204.59 7.55539C204.778 7.62 204.942 7.74354 205.057 7.90823C205.172 8.07292 205.232 8.27028 205.229 8.47192V15.7349L201.231 6.34149H198.274C198.118 6.34149 198.037 6.55332 198.037 6.96067C198.037 7.36801 198.081 7.43319 198.11 7.46577C198.183 7.56901 198.285 7.64717 198.403 7.68981C198.619 7.78596 198.791 7.96239 198.882 8.18271C198.958 8.43589 198.992 8.70025 198.982 8.96481V22.2036C198.982 22.4928 198.753 22.7453 198.311 22.9409C198.251 22.957 198.199 22.9941 198.163 23.0456C198.128 23.097 198.112 23.1595 198.118 23.2219C198.1 23.4943 198.115 23.7679 198.162 24.0366C198.162 24.057 198.162 24.0937 198.282 24.0937H201.211C201.271 24.1016 201.332 24.1016 201.392 24.0937C201.392 24.0366 201.392 23.833 201.392 23.279C201.392 23.1568 201.356 22.9816 201.026 22.8268C200.838 22.768 200.674 22.6503 200.557 22.4906C200.44 22.331 200.376 22.1377 200.374 21.9388V13.1605L204.988 24.0652H206.597V8.31713C206.589 8.14129 206.632 7.96689 206.722 7.81609C206.874 7.64795 207.066 7.52298 207.281 7.45355C207.389 7.40875 207.418 7.36801 207.422 7.35172C207.462 7.20186 207.478 7.04647 207.47 6.89141C207.47 6.37001 207.361 6.32113 207.361 6.32113Z" fill="black"/>
<path d="M218.086 23.0387C218.043 22.9873 217.994 22.9409 217.941 22.9002C217.537 22.5089 217.285 21.9845 217.229 21.4215L215.27 8.16235C215.225 7.62953 215.127 7.10273 214.977 6.58999C214.947 6.5072 214.892 6.43626 214.82 6.3878C214.747 6.33934 214.661 6.31596 214.574 6.32114H210.363C210.222 6.32114 210.17 6.3578 210.166 6.37002C210.106 6.59555 210.087 6.83014 210.109 7.06252C210.109 7.22546 210.137 7.44134 210.25 7.51467C210.404 7.57447 210.538 7.67686 210.636 7.81013C210.735 7.9434 210.795 8.10217 210.809 8.26826C210.806 8.45669 210.788 8.64459 210.757 8.8304L208.705 22.0081C208.649 22.3332 208.482 22.6284 208.235 22.8431C208.122 22.9572 208.033 23.0942 207.976 23.2451C207.918 23.3959 207.893 23.5574 207.901 23.7189C207.901 23.9837 207.949 24.0652 207.973 24.0652H210.89C210.92 24.0741 210.952 24.0741 210.982 24.0652C211.011 23.9122 211.02 23.7562 211.01 23.6008C211.017 23.4479 210.998 23.295 210.954 23.1486C210.888 23.0532 210.796 22.9796 210.688 22.9368C210.519 22.8697 210.373 22.755 210.266 22.6064C210.159 22.4577 210.096 22.2812 210.085 22.0977C210.088 21.8861 210.122 21.6761 210.186 21.4744C210.187 21.4541 210.187 21.4337 210.186 21.4133L210.339 20.2198H213.38L213.404 20.3624C213.522 20.9746 213.602 21.5935 213.645 22.2158C213.643 22.3733 213.599 22.5272 213.519 22.6619C213.438 22.7965 213.323 22.9069 213.186 22.9816C212.981 23.116 212.941 23.1975 212.933 23.2179C212.885 23.4162 212.868 23.6212 212.885 23.8248C212.885 24.0407 212.933 24.0815 212.933 24.0815H217.857C217.969 24.0815 218.03 24.0611 218.042 24.0326C218.054 24.0041 218.098 23.9267 218.098 23.4216C218.116 23.2942 218.112 23.1646 218.086 23.0387ZM210.487 19.2544L211.931 9.13183L213.335 19.2544H210.487Z" fill="black"/>
<path d="M227.848 6.32116H224.819C224.775 6.31012 224.729 6.31012 224.686 6.32116C224.676 6.42 224.676 6.51966 224.686 6.61851C224.667 6.83446 224.691 7.05211 224.758 7.25805C224.84 7.37878 224.959 7.46895 225.096 7.51468C225.285 7.57929 225.448 7.70282 225.563 7.86752C225.678 8.03221 225.739 8.22957 225.736 8.43121V15.6942L221.737 6.30078H218.785C218.624 6.30078 218.543 6.51261 218.543 6.91996C218.524 7.09183 218.549 7.26584 218.616 7.42506C218.69 7.52724 218.792 7.60513 218.909 7.6491C219.126 7.74525 219.297 7.92168 219.388 8.142C219.467 8.39474 219.501 8.65944 219.489 8.9241V22.1629C219.489 22.4521 219.263 22.7046 218.817 22.9002C218.757 22.9163 218.705 22.9534 218.67 23.0048C218.634 23.0563 218.618 23.1188 218.624 23.1812C218.606 23.4536 218.621 23.7271 218.668 23.9959C218.668 24.0163 218.688 24.053 218.789 24.053H221.717C221.777 24.0609 221.838 24.0609 221.898 24.053C221.898 23.9878 221.918 23.7923 221.918 23.2383C221.918 23.1161 221.878 22.9409 221.552 22.7861C221.365 22.7273 221.2 22.6096 221.083 22.4499C220.966 22.2903 220.902 22.097 220.901 21.8981V13.1605L225.51 24.0652H227.119V8.31715C227.111 8.14025 227.158 7.96518 227.252 7.81611C227.403 7.646 227.596 7.52066 227.811 7.45358C227.916 7.40877 227.944 7.36804 227.948 7.35174C227.986 7.20289 227.998 7.04857 227.984 6.89552C227.956 6.37004 227.848 6.32116 227.848 6.32116Z" fill="black"/>
<path d="M235.717 20.0365C235.267 20.0365 235.094 20.1302 235.026 20.2117C234.882 20.4288 234.814 20.6883 234.832 20.949C234.752 22.448 234.35 23.2016 233.626 23.2016C233.223 23.2016 232.737 22.9572 232.737 21.78V9.18073C232.737 8.70007 232.737 7.25399 233.593 7.25399C234.253 7.25399 234.732 8.09312 235.058 9.83249C235.1 10.2339 235.213 10.6244 235.392 10.9853C235.461 11.0561 235.546 11.1098 235.64 11.1422C235.733 11.1747 235.833 11.1851 235.931 11.1727C236.22 11.1727 236.309 11.1075 236.333 11.0708C236.357 11.0342 236.429 10.9242 236.429 10.635C236.433 10.5698 236.433 10.5046 236.429 10.4394L236.176 6.82627C236.184 6.57953 236.146 6.33347 236.063 6.10119C236.047 6.07398 236.024 6.05187 235.997 6.03745C235.969 6.02303 235.937 6.01688 235.906 6.01972H235.327C235.327 6.01972 235.219 6.0401 235.074 6.23563C234.716 6.7 234.555 6.72443 234.137 6.43114C233.764 6.15406 233.311 6.0107 232.849 6.0238C232.437 6.02744 232.03 6.11724 231.653 6.28756C231.277 6.45789 230.939 6.70506 230.661 7.01365C229.924 7.84805 229.375 8.83495 229.052 9.90581C228.585 11.5448 228.373 13.2477 228.425 14.9528C228.372 16.8141 228.627 18.6712 229.177 20.4479C229.672 21.8574 230.255 22.8635 230.923 23.4297C231.567 23.9824 232.387 24.2804 233.231 24.2689C233.655 24.28 234.075 24.1959 234.463 24.0226C234.85 23.8493 235.195 23.5912 235.472 23.2668C236.083 22.5661 236.407 21.6553 236.377 20.7209C236.377 20.3502 236.297 20.2158 236.252 20.1669C236.095 20.0611 235.905 20.0149 235.717 20.0365Z" fill="black"/>
<path d="M244.911 20.0487C244.705 20.0247 244.497 20.0752 244.324 20.1913C244.158 20.4068 244.042 20.6575 243.986 20.9245C243.817 21.5509 243.59 22.1593 243.306 22.7413C243.203 22.8768 243.068 22.9836 242.913 23.0513C242.758 23.119 242.589 23.1455 242.421 23.1283H241.669V15.0669H242.694C242.785 15.0615 242.875 15.0762 242.959 15.11C243.043 15.1438 243.119 15.1958 243.181 15.2624C243.337 15.5071 243.431 15.7869 243.455 16.0771C243.559 16.6433 243.64 16.7655 243.668 16.794C243.696 16.8225 243.773 16.8714 244.046 16.8714C244.238 16.8921 244.433 16.8727 244.617 16.8144C244.617 16.8144 244.678 16.7533 244.678 16.4804V12.7572C244.693 12.6085 244.675 12.4581 244.625 12.3173C244.329 12.2837 244.03 12.2728 243.732 12.2847C243.709 12.2836 243.687 12.2891 243.667 12.3007C243.647 12.3122 243.63 12.3293 243.62 12.3499C243.524 12.6437 243.46 12.9468 243.427 13.2542C243.408 13.5032 243.312 13.7399 243.153 13.9304C242.995 14.0602 242.793 14.1243 242.59 14.1096H241.669V7.36804H242.602C242.747 7.37699 242.888 7.42464 243.009 7.50617C243.131 7.5877 243.229 7.70023 243.294 7.83241C243.547 8.28956 243.751 8.77303 243.901 9.27442C244.054 9.71028 244.171 9.8447 244.231 9.88544C244.453 9.98494 244.698 10.0229 244.939 9.99542C245.104 9.99542 245.305 9.97505 245.305 9.861C245.305 9.861 245.305 9.77953 245.265 9.59215L244.698 6.69998C244.645 6.43521 244.585 6.38225 244.577 6.38225C244.489 6.33116 244.388 6.30975 244.287 6.32115H237.212C237.122 6.3109 237.03 6.32349 236.946 6.35781C236.924 6.49236 236.915 6.62877 236.918 6.76516C236.905 6.95934 236.921 7.15447 236.966 7.34358C236.966 7.34358 237.007 7.41691 237.28 7.53912C237.554 7.66132 237.859 7.82019 237.871 8.11348V22.0855C237.871 22.4562 237.63 22.7454 237.168 22.9491C237.079 22.9721 237.001 23.0251 236.946 23.0991C236.891 23.1731 236.863 23.2639 236.866 23.3564C236.848 23.5751 236.866 23.7952 236.918 24.0081C236.918 24.0081 236.987 24.057 237.131 24.057H244.513C244.766 24.057 244.81 24.0081 244.81 24.0081C244.896 23.7549 244.953 23.4925 244.979 23.226L245.382 20.6801C245.405 20.5662 245.417 20.4502 245.418 20.3339C245.418 20.2443 245.418 20.0487 244.911 20.0487Z" fill="black"/>
<path d="M41.2997 31.4748C40.9912 31.1514 40.6181 30.8984 40.2054 30.7326C39.7927 30.5668 39.3498 30.4921 38.9063 30.5135H35.2458C35.1734 30.5135 35.1412 30.5135 35.1331 30.5135C35.1275 30.569 35.1275 30.625 35.1331 30.6805V31.0186C35.1313 31.0587 35.142 31.0983 35.1636 31.132C35.1853 31.1656 35.2168 31.1915 35.2538 31.2059C35.3865 31.2545 35.5017 31.3422 35.5849 31.4576C35.668 31.573 35.7152 31.7109 35.7204 31.8536V40.5994C35.7306 40.7143 35.7053 40.8296 35.648 40.9293C35.5662 41.0301 35.4525 41.0991 35.3262 41.1248C35.275 41.137 35.226 41.1577 35.1814 41.1859C35.1625 41.3085 35.1558 41.4327 35.1613 41.5566C35.1613 41.6381 35.1613 41.8418 35.2538 41.8418H38.496C38.5656 41.8491 38.636 41.8394 38.7011 41.8133C38.709 41.7374 38.709 41.661 38.7011 41.5851C38.7011 41.3489 38.6689 41.2756 38.6529 41.2552C38.6129 41.205 38.56 41.1669 38.5 41.1452C38.3556 41.0979 38.2313 41.0025 38.1473 40.8746C38.0633 40.7466 38.0246 40.5936 38.0374 40.4405V37.8661H39.0953C39.4936 37.8655 39.8882 37.7881 40.2578 37.6379C40.6093 37.4924 40.9374 37.2947 41.2313 37.0514C41.5444 36.745 41.7767 36.3641 41.9071 35.9434C42.1043 35.3801 42.1997 34.7853 42.1887 34.1877C42.2463 33.2015 41.9281 32.2305 41.2997 31.4748ZM39.5459 35.9556C39.5725 36.3216 39.4914 36.6874 39.3126 37.0066C39.2486 37.1105 39.1606 37.1971 39.0562 37.2588C38.9517 37.3206 38.834 37.3556 38.7132 37.361H38.0495V30.9778H38.5805C39.0189 30.9778 39.5459 31.2141 39.5459 32.3587V35.9556Z" fill="black"/>
<path d="M50.1852 41.4426C50.1903 41.3927 50.1818 41.3424 50.1605 41.2971C50.1392 41.2519 50.106 41.2134 50.0645 41.186C49.9885 41.1359 49.9264 41.0669 49.8841 40.9856C49.8419 40.9043 49.8209 40.8134 49.8232 40.7216V38.9945C49.8232 37.6746 49.2198 36.9007 47.9769 36.6237L47.3493 36.4811L47.9608 36.2937C49.3405 35.8864 50.0123 35.0147 50.0123 33.646C50.0319 33.2245 49.9643 32.8036 49.814 32.4101C49.6637 32.0166 49.4339 31.6592 49.1394 31.3608C48.8794 31.0943 48.57 30.8823 48.2291 30.7369C47.8881 30.5915 47.5222 30.5156 47.1522 30.5135H43.1981C43.0774 30.5135 43.0573 30.7538 43.0573 30.9208C43.0522 31.0015 43.059 31.0825 43.0774 31.1612C43.1192 31.1805 43.1622 31.1968 43.2061 31.2101C43.3558 31.2577 43.484 31.3575 43.568 31.4917C43.6519 31.6259 43.6862 31.7859 43.6647 31.9433V40.4283C43.6755 40.5946 43.6327 40.76 43.5427 40.8995C43.4528 41.0391 43.3206 41.1453 43.1659 41.2023C43.1378 41.2023 43.1257 41.2023 43.1257 41.2308C43.1074 41.3657 43.1007 41.502 43.1056 41.6381C43.1056 41.8499 43.1659 41.85 43.1901 41.85H46.211C46.3035 41.85 46.3437 41.8296 46.3518 41.8174C46.3598 41.8051 46.4 41.74 46.4 41.41C46.4 41.2349 46.3316 41.1656 46.2793 41.1371C46.1723 41.0801 46.0873 40.9883 46.038 40.8764C45.9996 40.7443 45.9846 40.6064 45.9938 40.469V36.7133H46.4845C46.6209 36.6973 46.7591 36.7126 46.889 36.7579C47.0188 36.8032 47.1369 36.8775 47.2346 36.9753C47.3323 37.073 47.407 37.1917 47.4534 37.3226C47.4997 37.4536 47.5164 37.5934 47.5022 37.7317V40.6483C47.4915 40.9583 47.5608 41.2658 47.7033 41.5404C47.736 41.6243 47.7908 41.6976 47.8617 41.7521C47.9326 41.8067 48.017 41.8406 48.1056 41.85H50.0203C50.0655 41.8588 50.1119 41.8588 50.1571 41.85C50.1571 41.85 50.1852 41.74 50.1852 41.4426ZM46.6253 36.2204H45.9938V31.0064H46.396C46.5467 30.9946 46.6982 31.0153 46.8403 31.0673C46.9825 31.1192 47.1121 31.2012 47.2206 31.3078C47.427 31.5872 47.5244 31.9338 47.4942 32.2814V34.591C47.5022 35.6746 47.2045 36.2204 46.6253 36.2204Z" fill="black"/>
<path d="M54.5094 31.1245C54.5263 31.1307 54.5448 31.1307 54.5617 31.1245C54.5886 30.9905 54.5981 30.8536 54.5898 30.7171C54.5898 30.6194 54.5898 30.5623 54.5898 30.5379H50.9696C50.9662 30.554 50.9662 30.5707 50.9696 30.5868V30.9697C50.9696 31.0715 50.9696 31.1041 50.9897 31.1123C51.0321 31.1467 51.0796 31.1742 51.1305 31.1937C51.3018 31.2511 51.4455 31.3718 51.5327 31.5318C51.6006 31.6995 51.6309 31.8804 51.6212 32.0614V40.6523C51.6212 40.8479 51.5327 41.1126 51.1144 41.2267C51.0628 41.2405 51.0147 41.2656 50.9736 41.3C50.9429 41.4898 50.9335 41.6825 50.9454 41.8744H54.5657C54.5682 41.8337 54.5682 41.7929 54.5657 41.7522V41.4711C54.5697 41.4066 54.5629 41.3419 54.5456 41.2796C54.4937 41.2313 54.4338 41.1927 54.3686 41.1656C54.2515 41.1194 54.1507 41.0389 54.0791 40.9344C54.0074 40.83 53.9682 40.7062 53.9663 40.579V31.8618C53.9493 31.6924 53.9956 31.5226 54.0962 31.3861C54.1967 31.2496 54.3442 31.1562 54.5094 31.1245Z" fill="black"/>
<path d="M54.8837 30.3831C54.8545 30.4439 54.8407 30.5111 54.8435 30.5787V30.7742C54.8456 30.8149 54.8456 30.8557 54.8435 30.8964C54.8435 30.9371 54.8435 30.986 54.8435 31.0227C54.8399 31.0984 54.8495 31.1742 54.8717 31.2467C54.9266 31.0705 54.9458 30.8848 54.928 30.7009C54.93 30.5932 54.915 30.486 54.8837 30.3831Z" fill="white"/>
<path d="M61.6172 30.5176H59.8192C59.8192 30.5176 59.8192 30.6194 59.8192 30.8353V30.9494C59.8176 30.9806 59.8176 31.0118 59.8192 31.043C59.8192 31.043 59.8594 31.0756 59.96 31.1245C60.0873 31.1682 60.1986 31.2499 60.2791 31.3591C60.3595 31.4682 60.4054 31.5995 60.4105 31.7355C60.4105 31.8048 60.4105 31.8659 60.4105 31.9188L59.1394 38.3875L58.001 31.9188C57.9862 31.8477 57.9768 31.7755 57.9728 31.7029C57.9704 31.5686 58.0074 31.4366 58.079 31.3235C58.1505 31.2104 58.2536 31.1213 58.3751 31.0675C58.3968 31.0565 58.4171 31.0428 58.4354 31.0268V30.6438C58.4409 30.5954 58.434 30.5463 58.4153 30.5013H55.1973C55.1946 30.5229 55.1946 30.5448 55.1973 30.5664V30.6683C55.2034 30.6992 55.2034 30.731 55.1973 30.762C55.2012 30.8162 55.2012 30.8707 55.1973 30.9249C55.1955 30.9534 55.1955 30.982 55.1973 31.0105C55.1973 31.0797 55.1973 31.1123 55.1973 31.1204C55.1973 31.1286 55.2375 31.1489 55.318 31.1938C55.4281 31.265 55.5212 31.36 55.5908 31.4719C55.6603 31.5839 55.7045 31.7101 55.7202 31.8414L57.5867 41.4548C57.608 41.6303 57.6499 41.8026 57.7114 41.9681H59.1434L61.1104 32.041C61.1381 31.8391 61.1922 31.6419 61.2713 31.4545C61.3553 31.3297 61.4668 31.2264 61.5971 31.153C61.6253 31.1204 61.6374 31.043 61.6374 30.7457C61.6346 30.6693 61.6279 30.5932 61.6172 30.5176Z" fill="black"/>
<path d="M54.8837 30.3831C54.8545 30.4439 54.8407 30.5111 54.8435 30.5787V30.7742C54.8456 30.8149 54.8456 30.8557 54.8435 30.8964C54.8435 30.9371 54.8435 30.986 54.8435 31.0227C54.8399 31.0984 54.8495 31.1742 54.8717 31.2467C54.9266 31.0705 54.9458 30.8848 54.928 30.7009C54.93 30.5932 54.915 30.486 54.8837 30.3831Z" fill="white"/>
<path d="M67.6705 41.2796C67.6705 41.2796 67.6424 41.247 67.5901 41.2063C67.3193 40.9446 67.1495 40.5936 67.1114 40.2165L65.8523 31.6622C65.8326 31.3222 65.7677 30.9865 65.6593 30.6642C65.6488 30.6218 65.6234 30.5847 65.5878 30.56C65.5523 30.5352 65.509 30.5245 65.4662 30.5298H62.6504C62.6504 30.5298 62.6504 30.6194 62.6504 30.9371C62.6504 31.0593 62.6705 31.1489 62.7108 31.1733C62.8218 31.2167 62.9184 31.291 62.9896 31.3875C63.0608 31.4841 63.1035 31.5991 63.113 31.7192C63.1119 31.8438 63.0984 31.968 63.0728 32.0899L61.7494 40.5994C61.7132 40.8268 61.5976 41.0335 61.4236 41.1819C61.358 41.25 61.307 41.3312 61.2738 41.4202C61.2406 41.5092 61.2258 41.6042 61.2305 41.6992C61.224 41.7617 61.2337 41.8249 61.2586 41.8825H63.1009C63.106 41.7998 63.106 41.7168 63.1009 41.634C63.1074 41.5418 63.0965 41.4492 63.0688 41.3611C63.0688 41.3611 63.0486 41.3163 62.928 41.2552C62.8084 41.2074 62.7048 41.126 62.6293 41.0207C62.5537 40.9154 62.5094 40.7904 62.5016 40.6605C62.5082 40.5224 62.5312 40.3856 62.57 40.2531L62.6826 39.4058H64.7502L64.7703 39.5443C64.8508 39.9476 64.9045 40.3558 64.9312 40.7664C64.9305 40.8786 64.8998 40.9886 64.8425 41.0847C64.7851 41.1808 64.7032 41.2594 64.6054 41.3122C64.4847 41.3896 64.4646 41.4303 64.4646 41.4385C64.4323 41.5592 64.4227 41.6849 64.4364 41.8092C64.4294 41.8427 64.4294 41.8774 64.4364 41.911H67.5901C67.6155 41.9142 67.6411 41.9142 67.6665 41.911C67.6817 41.7922 67.6884 41.6724 67.6866 41.5526C67.6892 41.4613 67.6838 41.3699 67.6705 41.2796ZM62.763 38.86L63.7606 31.8414L64.7341 38.86H62.763Z" fill="black"/>
<path d="M73.3954 32.3262L73.2747 30.8353C73.2674 30.728 73.2499 30.6215 73.2224 30.5176H67.8322C67.5869 30.5176 67.5265 30.5502 67.5265 30.5583C67.4865 30.6449 67.4672 30.7398 67.4702 30.8353L67.3857 32.5176C67.3857 32.6073 67.3857 32.6847 67.3857 32.7661C67.3857 32.8476 67.4139 32.9413 67.4139 32.9413C67.5083 32.9737 67.6082 32.9862 67.7076 32.9779C67.9529 32.9779 68.0133 32.9291 68.0173 32.9209C68.0213 32.9128 68.0857 32.8558 68.1259 32.5136C68.1445 32.0976 68.2204 31.6863 68.3512 31.2915C68.3795 31.2048 68.4331 31.1288 68.5049 31.0736C68.5767 31.0183 68.6633 30.9864 68.7534 30.982H69.2361V40.5872C69.2482 40.7193 69.2187 40.852 69.1516 40.966C69.0602 41.0796 68.9367 41.162 68.7977 41.2023C68.7051 41.2349 68.685 41.4059 68.685 41.5322C68.6733 41.6378 68.6733 41.7444 68.685 41.85C68.7185 41.8522 68.7521 41.8522 68.7856 41.85H71.9312C71.9914 41.8557 72.052 41.8557 72.1122 41.85C72.1122 41.85 72.1122 41.7644 72.1122 41.5404C72.1183 41.439 72.1088 41.3373 72.0841 41.2389C72.0841 41.2389 72.0599 41.1982 71.9714 41.1656C71.8354 41.1073 71.7203 41.008 71.6419 40.8812C71.5634 40.7544 71.5254 40.6063 71.533 40.4569V30.986H71.9111C72.1243 30.986 72.2932 31.1612 72.4059 31.4952C72.5143 31.8422 72.6003 32.196 72.6633 32.5543C72.7116 32.8517 72.7639 32.9046 72.7639 32.9046C72.8849 32.9419 73.0118 32.9558 73.138 32.9454C73.2948 32.9454 73.331 32.9128 73.331 32.9128C73.3581 32.8316 73.369 32.7457 73.3632 32.6602C73.4075 32.5543 73.3994 32.4321 73.3954 32.3262Z" fill="black"/>
<path d="M79.2878 39.3733C79.0706 39.3733 78.9821 39.4262 78.9579 39.4547C78.8531 39.583 78.7813 39.7356 78.7487 39.8987C78.6452 40.3125 78.4954 40.7129 78.3023 41.0923C78.232 41.1883 78.1384 41.2643 78.0305 41.3128C77.9227 41.3613 77.8043 41.3808 77.6868 41.3693H77.1397V36.0452H77.8638C77.9296 36.0402 77.9957 36.0504 78.057 36.0751C78.1184 36.0998 78.1734 36.1384 78.2178 36.1878C78.3245 36.3514 78.3907 36.5387 78.4109 36.7337C78.4752 37.088 78.5235 37.141 78.5315 37.141C78.5396 37.141 78.5718 37.1817 78.7367 37.1817C78.849 37.1894 78.9618 37.1784 79.0706 37.1492C79.0759 37.095 79.0759 37.0404 79.0706 36.9862V34.591C79.0727 34.5171 79.066 34.4433 79.0504 34.371C78.8741 34.3529 78.6967 34.3461 78.5195 34.3507C78.4913 34.3751 78.4591 34.4647 78.3787 34.9291C78.3661 35.1035 78.2984 35.2692 78.1856 35.4016C78.0714 35.4923 77.9282 35.5372 77.7833 35.5279H77.1317V31.0471H77.7753C77.8799 31.052 77.9814 31.0852 78.0691 31.1433C78.1568 31.2013 78.2276 31.282 78.2741 31.377C78.4425 31.6731 78.5774 31.9873 78.6763 32.3139C78.7769 32.6072 78.8413 32.6724 78.8614 32.6846C78.9961 32.7414 79.1428 32.7624 79.2878 32.7457C79.3505 32.7524 79.4139 32.744 79.4728 32.7213C79.465 32.6664 79.4542 32.612 79.4406 32.5584L79.0746 30.6927C79.0674 30.6317 79.0497 30.5724 79.0223 30.5175C78.9717 30.5085 78.92 30.5085 78.8694 30.5175H74.1993C74.1993 30.5542 74.1993 30.6153 74.1993 30.7334C74.1882 30.8499 74.1882 30.9673 74.1993 31.0838C74.2525 31.1238 74.3106 31.1567 74.3722 31.1815C74.5452 31.2548 74.7745 31.3811 74.7745 31.5889V40.6238C74.7745 40.8071 74.69 41.0638 74.2838 41.2389C74.143 41.3 74.1228 41.3815 74.1228 41.4548C74.1149 41.5912 74.1244 41.7281 74.151 41.8621H79.0062C79.058 41.8672 79.1103 41.8603 79.1591 41.8418C79.1591 41.8418 79.1953 41.7196 79.2476 41.3774L79.513 39.748C79.5295 39.673 79.5389 39.5967 79.5412 39.5199C79.5693 39.4792 79.5693 39.3733 79.2878 39.3733Z" fill="black"/>
<path d="M89.171 39.4792C89.171 39.4792 89.1027 39.4466 88.8452 39.4466C88.7312 39.4325 88.6156 39.4509 88.5113 39.4995C88.5113 39.4995 88.451 39.5403 88.3786 39.8213C88.292 40.2432 88.157 40.6533 87.9763 41.0434C87.9158 41.1499 87.8275 41.2373 87.721 41.2963C87.6146 41.3552 87.4941 41.3833 87.373 41.3774H86.7977V31.8658C86.7921 31.7211 86.8364 31.579 86.923 31.4638C87.0096 31.3485 87.1332 31.2675 87.2724 31.2345C87.3241 31.2178 87.373 31.193 87.4172 31.1611C87.4421 31.0823 87.4517 30.9993 87.4454 30.9167C87.4454 30.6071 87.4132 30.5338 87.4052 30.5094C87.3652 30.5032 87.3245 30.5032 87.2845 30.5094H83.8814C83.8814 30.5094 83.8814 30.599 83.8814 30.8027C83.8723 30.9089 83.886 31.0159 83.9216 31.1163C83.9216 31.1163 83.9498 31.1774 84.1026 31.2385C84.2095 31.2802 84.3012 31.3542 84.3652 31.4503C84.4292 31.5465 84.4626 31.6603 84.4607 31.7762V40.3835C84.4607 41.0026 84.1751 41.2267 83.9418 41.3C83.8895 41.3 83.8734 41.3326 83.8693 41.3407C83.851 41.4373 83.8443 41.5358 83.8492 41.634C83.8492 41.8458 83.9216 41.8458 83.982 41.8458H88.6843C88.7348 41.85 88.7856 41.8431 88.8331 41.8255C88.8719 41.7377 88.8963 41.6442 88.9055 41.5485L89.159 39.8173C89.1759 39.7189 89.1867 39.6196 89.1912 39.5199C89.1831 39.4791 89.1751 39.4792 89.171 39.4792Z" fill="black"/>
<path d="M93.383 31.1245C93.4232 31.1245 93.4273 31.1245 93.4273 31.1245C93.4603 30.9914 93.4698 30.8535 93.4554 30.7171C93.4603 30.6575 93.4603 30.5975 93.4554 30.5379H89.8351C89.8334 30.5541 89.8334 30.5705 89.8351 30.5868V30.9697C89.83 31.0171 89.83 31.0649 89.8351 31.1123C89.8799 31.1476 89.9302 31.1751 89.984 31.1937C90.1539 31.2538 90.2967 31.3738 90.3862 31.5318C90.4481 31.7011 90.4768 31.881 90.4707 32.0614V40.6523C90.4707 40.8479 90.3782 41.1126 89.9598 41.2267C89.8472 41.2674 89.8271 41.3 89.8271 41.3C89.7965 41.4898 89.787 41.6825 89.7989 41.8744H93.4192C93.4192 41.8459 93.4192 41.8051 93.4192 41.7522V41.4711C93.4192 41.3285 93.3991 41.2796 93.3911 41.2796C93.383 41.2796 93.3669 41.2389 93.2181 41.1656C93.1007 41.1199 92.9996 41.0395 92.9279 40.9349C92.8562 40.8304 92.8171 40.7063 92.8158 40.579V31.8618C92.7995 31.6888 92.8491 31.516 92.9546 31.3789C93.0601 31.2418 93.2134 31.1508 93.383 31.1245Z" fill="black"/>
<path d="M101.432 31.5237C101.509 31.4039 101.622 31.3114 101.753 31.259C101.894 31.1938 101.926 31.1408 101.93 31.1245C101.968 31.0219 101.982 30.9117 101.971 30.8027C101.977 30.7119 101.966 30.6206 101.939 30.5339C101.865 30.5244 101.791 30.5244 101.717 30.5339H99.3038L98.0125 35.4994L96.7535 30.5176H94.1871C94.1871 30.5176 94.1871 30.6031 94.167 30.8516V31.1653C94.2059 31.1996 94.2492 31.2283 94.2957 31.2508C94.4558 31.3377 94.5767 31.4835 94.6336 31.6581C94.6889 31.8484 94.7133 32.0465 94.706 32.2447V40.6035C94.715 40.7305 94.6929 40.8578 94.6416 40.9742C94.576 41.0788 94.493 41.1711 94.3963 41.2471C94.3429 41.2874 94.3003 41.3406 94.2722 41.4017C94.2441 41.4628 94.2315 41.5301 94.2354 41.5974C94.2354 41.7766 94.2676 41.8663 94.3279 41.8663H95.8846C95.9329 41.8663 96.0334 41.8663 96.0334 41.5771C96.0413 41.4935 96.0235 41.4095 95.9825 41.3366C95.9414 41.2637 95.8792 41.2054 95.8042 41.1697C95.698 41.1168 95.6089 41.0342 95.5476 40.9317C95.4863 40.8292 95.4553 40.7111 95.4582 40.5913V33.369L97.0149 39.2511H97.5499L99.1308 33.202V40.5913C99.132 40.7104 99.0962 40.8268 99.0283 40.9241C98.9604 41.0214 98.864 41.0945 98.7527 41.133C98.632 41.1778 98.5918 41.2186 98.5918 41.2389C98.5764 41.3823 98.5697 41.5265 98.5716 41.6707C98.5716 41.8215 98.6079 41.854 98.6079 41.854H101.782C101.816 41.8596 101.852 41.8596 101.886 41.854C101.895 41.6831 101.895 41.5118 101.886 41.3408C101.886 41.3163 101.886 41.2267 101.713 41.1412C101.585 41.0924 101.476 41.0022 101.404 40.8846C101.358 40.7737 101.338 40.6541 101.343 40.5342V31.9351C101.344 31.7933 101.374 31.6532 101.432 31.5237Z" fill="black"/>
<path d="M106.206 31.1245C106.247 31.1245 106.251 31.1245 106.251 31.1245C106.284 30.9914 106.293 30.8535 106.279 30.7171C106.284 30.6575 106.284 30.5975 106.279 30.5379H102.659C102.657 30.5541 102.657 30.5705 102.659 30.5868V30.9697C102.653 31.0171 102.653 31.0649 102.659 31.1123C102.705 31.1421 102.754 31.1693 102.803 31.1937C102.974 31.2531 103.117 31.3733 103.206 31.5318C103.267 31.7011 103.296 31.881 103.29 32.0614V40.6523C103.29 40.8479 103.206 41.1126 102.779 41.2267C102.667 41.2674 102.646 41.3 102.646 41.3C102.616 41.4898 102.606 41.6825 102.618 41.8744H106.239C106.243 41.8338 106.243 41.7928 106.239 41.7522V41.4711C106.239 41.3285 106.218 41.2796 106.21 41.2796C106.202 41.2796 106.186 41.2389 106.037 41.1656C105.92 41.1199 105.819 41.0395 105.747 40.9349C105.676 40.8304 105.636 40.7063 105.635 40.579V31.8618C105.619 31.6882 105.669 31.5149 105.775 31.3777C105.882 31.2404 106.036 31.1498 106.206 31.1245Z" fill="black"/>
<path d="M112.972 32.3262L112.852 30.8353C112.846 30.7281 112.83 30.6217 112.803 30.5176H107.413C107.168 30.5176 107.108 30.5502 107.108 30.5583C107.068 30.645 107.05 30.7401 107.055 30.8353L106.967 32.5176C106.967 32.6073 106.967 32.6847 106.967 32.7661C106.967 32.8476 106.995 32.9413 106.995 32.9413C107.089 32.9737 107.189 32.9862 107.289 32.9779C107.534 32.9779 107.594 32.9291 107.598 32.9209C107.602 32.9128 107.667 32.8558 107.707 32.5136C107.726 32.0976 107.801 31.6863 107.932 31.2915C107.961 31.2048 108.014 31.1288 108.086 31.0736C108.158 31.0183 108.244 30.9864 108.334 30.982H108.829V40.5872C108.84 40.7198 108.809 40.8525 108.741 40.966C108.648 41.0777 108.525 41.1597 108.387 41.2023C108.294 41.2349 108.27 41.4059 108.27 41.5322C108.267 41.6387 108.276 41.7452 108.294 41.85C108.328 41.8522 108.361 41.8522 108.395 41.85H111.54C111.601 41.8557 111.661 41.8557 111.721 41.85C111.721 41.85 111.721 41.7644 111.721 41.5404C111.727 41.439 111.718 41.3373 111.693 41.2389C111.693 41.2389 111.669 41.1982 111.581 41.1656C111.445 41.1073 111.33 41.008 111.251 40.8812C111.173 40.7544 111.135 40.6063 111.142 40.4569V30.986H111.52C111.733 30.986 111.902 31.1612 112.015 31.4952C112.123 31.8422 112.209 32.196 112.272 32.5543C112.321 32.8517 112.373 32.9046 112.373 32.9046C112.494 32.9432 112.621 32.9571 112.747 32.9454C112.904 32.9454 112.94 32.9128 112.94 32.9128C112.967 32.8316 112.978 32.7457 112.972 32.6602C112.984 32.5543 112.976 32.4321 112.972 32.3262Z" fill="black"/>
<path d="M118.865 39.3732C118.648 39.3732 118.56 39.4262 118.535 39.4547C118.432 39.5841 118.361 39.7362 118.326 39.8987C118.22 40.3179 118.067 40.7237 117.872 41.1085C117.8 41.2043 117.706 41.28 117.598 41.3285C117.489 41.3769 117.37 41.3966 117.252 41.3855H116.705V36.0452H117.425C117.492 36.0398 117.558 36.0499 117.621 36.0746C117.683 36.0993 117.738 36.138 117.783 36.1877C117.89 36.3514 117.956 36.5386 117.976 36.7336C118.045 37.088 118.089 37.1409 118.097 37.1409C118.105 37.1409 118.137 37.1817 118.302 37.1817C118.414 37.1894 118.527 37.1784 118.636 37.1491C118.636 37.1491 118.636 37.1043 118.636 36.9862V34.591C118.645 34.5179 118.645 34.444 118.636 34.371C118.46 34.3528 118.282 34.346 118.105 34.3506C118.077 34.3751 118.037 34.4647 117.964 34.9291C117.949 35.1028 117.882 35.2677 117.771 35.4016C117.657 35.4922 117.514 35.5372 117.369 35.5278H116.717V31.047H117.361C117.466 31.0529 117.567 31.0865 117.656 31.1443C117.744 31.2022 117.816 31.2824 117.864 31.377C118.03 31.674 118.165 31.9881 118.266 32.3139C118.367 32.6072 118.431 32.6724 118.451 32.6846C118.471 32.6968 118.564 32.7457 118.877 32.7457C118.94 32.7523 119.003 32.7439 119.062 32.7212C119.062 32.6927 119.042 32.6398 119.03 32.5583L118.664 30.6926C118.636 30.5501 118.612 30.5175 118.604 30.5175C118.556 30.5061 118.507 30.5061 118.459 30.5175H113.777C113.771 30.5893 113.771 30.6616 113.777 30.7334C113.772 30.8505 113.779 30.9679 113.797 31.0837C113.848 31.1265 113.907 31.1596 113.97 31.1815C114.143 31.2548 114.372 31.3811 114.372 31.5888V40.6238C114.372 40.8071 114.288 41.0637 113.881 41.2389C113.741 41.3 113.721 41.3814 113.721 41.4547C113.713 41.5912 113.722 41.7281 113.749 41.8621H118.604C118.657 41.8659 118.71 41.859 118.761 41.8417C118.761 41.8417 118.793 41.7195 118.845 41.3773L119.111 39.748C119.125 39.6726 119.135 39.5964 119.139 39.5198C119.147 39.4791 119.147 39.3732 118.865 39.3732Z" fill="black"/>
<path d="M125.965 31.8048C125.722 31.4106 125.384 31.0854 124.983 30.8596C124.582 30.6337 124.131 30.5146 123.672 30.5135H120.249C120.124 30.5026 119.999 30.5165 119.879 30.5542C119.849 30.6262 119.838 30.7048 119.847 30.7823C119.834 30.9192 119.846 31.0573 119.883 31.1897C119.924 31.2349 119.977 31.2674 120.036 31.2834C120.318 31.3648 120.398 31.5196 120.41 31.6337V40.4242C120.411 40.5875 120.365 40.7474 120.277 40.8843C120.189 41.0211 120.063 41.1288 119.915 41.1941C119.868 41.2169 119.826 41.2487 119.791 41.2878C119.783 41.3977 119.783 41.5079 119.791 41.6178C119.784 41.6973 119.793 41.7774 119.815 41.854C119.844 41.8577 119.874 41.8577 119.903 41.854H123.676C124.148 41.8576 124.612 41.7332 125.02 41.494C125.428 41.2548 125.766 40.9093 125.997 40.4935C126.597 39.5688 126.894 38.139 126.894 36.253C126.89 34.1837 126.581 32.6806 125.965 31.8048ZM124.223 39.691C124.255 40.1277 124.184 40.5658 124.018 40.9701C123.945 41.0993 123.838 41.2057 123.709 41.2775C123.579 41.3493 123.433 41.3839 123.286 41.3774H122.739V31.0308H123.178C123.328 31.0252 123.478 31.0559 123.614 31.1203C123.75 31.1848 123.87 31.2812 123.962 31.4015C124.144 31.6632 124.235 31.978 124.223 32.2977V39.691Z" fill="black"/>
<path d="M18.3383 17.0221V39.5403H8.28203V35.1002L1.15009 47.9316H26.6167V2.13768L18.3383 17.0221ZM25.4783 0.0683594H0.0117188V45.8745L8.2941 30.986V8.52081H18.3504V12.912L25.4783 0.0683594Z" fill="#FFD700"/>
<rect x="258.703" y="0.0683594" width="53.5786" height="47.8632" fill="#E41C26"/>
<path d="M276.787 9.7322H279.818V22.2906H276.787V9.7322ZM266.004 8.51966H281.204V10.6199H266.004V8.51966ZM271.872 10.0353H274.903V18.155C274.903 19.0355 274.679 19.6634 274.232 20.0388C273.784 20.4141 273.019 20.6017 271.937 20.6017H270.053C268.97 20.6017 268.205 20.4141 267.758 20.0388C267.31 19.6634 267.087 19.0355 267.087 18.155V14.6256C267.087 13.8317 267.346 13.2615 267.866 12.9151C268.386 12.5542 269.208 12.3738 270.334 12.3738H272.889V14.4741H270.789C270.515 14.4741 270.334 14.5174 270.248 14.604C270.161 14.6762 270.118 14.8566 270.118 15.1453V17.9385C270.118 18.1694 270.161 18.321 270.248 18.3932C270.349 18.4653 270.5 18.5014 270.702 18.5014H271.287C271.489 18.5014 271.634 18.4653 271.72 18.3932C271.821 18.321 271.872 18.1694 271.872 17.9385V10.0353Z" fill="white"/>
<path d="M281.748 10.1436H284.757V22.2906H281.748V10.1436ZM280.34 8.51966H286.165V10.6199H280.34V8.51966ZM281.661 4.23248L284.757 8.64958H281.813C281.394 8.30314 280.983 7.91339 280.578 7.48035C280.174 7.03286 279.763 6.53486 279.344 5.98633L278.023 4.23248H281.661Z" fill="white"/>
<path d="M291.914 11.9841C292.303 11.9841 292.585 12.0707 292.758 12.2439C292.931 12.4027 293.04 12.6336 293.083 12.9368H293.17C293.213 12.6336 293.321 12.4027 293.494 12.2439C293.668 12.0707 293.942 11.9841 294.317 11.9841H299.579L296.721 14.0843H295.162C294.945 14.0843 294.801 14.1276 294.729 14.2143C294.656 14.3009 294.62 14.4452 294.62 14.6473V18.5231H291.589V14.6473C291.589 14.4452 291.553 14.3009 291.481 14.2143C291.409 14.1276 291.264 14.0843 291.048 14.0843H290.398C290.196 14.0843 290.052 14.1204 289.965 14.1926C289.878 14.2648 289.835 14.4163 289.835 14.6473V19.6707C289.835 19.8583 289.878 19.9882 289.965 20.0604C290.052 20.1326 290.196 20.1687 290.398 20.1687H291.546V22.2906H289.445C288.449 22.2906 287.764 22.1174 287.388 21.7709C287.013 21.4245 286.825 20.8832 286.825 20.147V14.4308C286.825 13.5502 287.035 12.9223 287.453 12.547C287.872 12.1717 288.493 11.9841 289.315 11.9841H291.914ZM285.288 8.51966H305.23V10.6199H285.288V8.51966ZM300.358 9.45072H303.39V13.9328H299.86C299.673 13.9328 299.535 13.9689 299.449 14.041C299.362 14.1132 299.319 14.2431 299.319 14.4308V15.2319C299.319 15.434 299.362 15.5711 299.449 15.6433C299.535 15.7155 299.673 15.7516 299.86 15.7516H301.159C302.17 15.7516 302.863 15.9248 303.238 16.2712C303.613 16.6177 303.801 17.1518 303.801 17.8735V20.147C303.801 20.8832 303.613 21.4245 303.238 21.7709C302.863 22.1174 302.17 22.2906 301.159 22.2906H298.756C297.76 22.2906 297.067 22.1174 296.677 21.7709C296.302 21.4245 296.114 20.8832 296.114 20.147V18.8046H299.146V19.8439C299.146 20.0315 299.182 20.1614 299.254 20.2336C299.341 20.3058 299.456 20.3419 299.6 20.3419H300.228C300.416 20.3419 300.553 20.3058 300.64 20.2336C300.726 20.1614 300.77 20.0315 300.77 19.8439V18.1983C300.77 17.9962 300.726 17.8591 300.64 17.7869C300.553 17.7147 300.416 17.6786 300.228 17.6786H298.929C297.919 17.6786 297.226 17.5054 296.85 17.159C296.475 16.8125 296.288 16.2784 296.288 15.5567V14.1276C296.288 13.3915 296.475 12.8501 296.85 12.5037C297.226 12.1573 297.919 11.9841 298.929 11.9841H300.358V9.45072Z" fill="white"/>
<path d="M268.541 29.8872H283.915V31.9875H268.541V29.8872ZM275.167 33.3516C275.557 33.3516 275.838 33.4382 276.011 33.6114C276.185 33.7702 276.293 34.0011 276.336 34.3043H276.423C276.466 34.0011 276.574 33.7702 276.748 33.6114C276.921 33.4382 277.195 33.3516 277.57 33.3516H279.952V35.4519H278.415C278.198 35.4519 278.054 35.4952 277.982 35.5818C277.91 35.6684 277.873 35.8127 277.873 36.0148V39.8906H274.842V36.0148C274.842 35.8127 274.806 35.6684 274.734 35.5818C274.662 35.4952 274.517 35.4519 274.301 35.4519H273.651C273.449 35.4519 273.305 35.4879 273.218 35.5601C273.132 35.6323 273.088 35.7839 273.088 36.0148V41.0382C273.088 41.2258 273.132 41.3558 273.218 41.4279C273.305 41.5001 273.449 41.5362 273.651 41.5362H274.799V43.6581H272.699C271.703 43.6581 271.017 43.4849 270.642 43.1385C270.266 42.792 270.079 42.2507 270.079 41.5145V35.7983C270.079 34.9178 270.288 34.2898 270.707 33.9145C271.125 33.5392 271.746 33.3516 272.569 33.3516H275.167ZM282.572 43.6581H279.541V31.5111H282.572V43.6581Z" fill="white"/>
<path d="M284.454 31.5111H287.464V43.6581H284.454V31.5111ZM283.047 29.8872H288.871V31.9875H283.047V29.8872ZM284.368 25.6L287.464 30.0171H284.519C284.1 29.6707 283.689 29.2809 283.285 28.8479C282.881 28.4004 282.469 27.9024 282.051 27.3539L280.73 25.6H284.368Z" fill="white"/>
<path d="M298.258 31.4245H301.289V43.6581H298.258V31.4245ZM287.995 29.8872H302.697V31.9875H287.995V29.8872ZM296.786 39.5225C296.786 40.403 296.562 41.031 296.114 41.4063C295.681 41.7816 294.916 41.9692 293.819 41.9692H292.065C290.983 41.9692 290.218 41.7816 289.77 41.4063C289.323 41.031 289.099 40.403 289.099 39.5225V35.4952C289.099 34.759 289.287 34.2177 289.662 33.8712C290.052 33.5248 290.745 33.3516 291.741 33.3516H299.86V35.4519H292.693C292.491 35.4519 292.347 35.4879 292.26 35.5601C292.174 35.6323 292.13 35.7622 292.13 35.9499V39.306C292.13 39.5369 292.181 39.6885 292.282 39.7607C292.383 39.8329 292.527 39.869 292.715 39.869H293.17C293.372 39.869 293.516 39.8329 293.603 39.7607C293.704 39.6885 293.754 39.5369 293.754 39.306V34.9322H296.786V39.5225Z" fill="white"/>
</g>
<defs>
<clipPath id="clip0_1422_2217">
<rect width="311.966" height="47.8632" fill="white" transform="translate(0 0.0683594)"/>
</clipPath>
</defs>
</svg>
